#!OML:ASF F:\VICON\USERDATA\INSTALL\rory3\rory3.ASF
:FULLY-SPECIFIED
:DEGREES
4599
root -0.341821 16.0926 -17.8264 9.00123 -3.94212 -717.505
lowerback 40.8801 2.41816 -2.26575
upperback 6.73519 2.38225 2.5802
thorax -12.391 1.11195 2.93151
lowerneck -12.1759 1.77 -4.36074
upperneck 0.552268 3.15928 -3.70648
head 2.26719 1.43254 -0.258622
rclavicle 3.18055e-015 2.14687e-014
rhumerus -15.6655 1.51583 -78.1031
rradius 61.7123
rwrist 2.79397
rhand -21.9845 9.04643
rfingers 7.12502
rthumb 4.42371 -20.8874
lclavicle 3.18055e-015 2.14687e-014
lhumerus 0.962623 19.4836 68.2391
lradius 82.263
lwrist 13.2972
lhand 161.502 -130.281
lfingers 7.12502
lthumb -172.21 3499.56
rfemur -41.1159 -4.49235 13.014
rtibia 66.7192
rfoot -26.9198 -16.269
rtoes -14.2926
lfemur -23.2953 -8.61477 11.8078
ltibia 35.2575
lfoot 9.7312 25.8504
ltoes -6.52609
4600
root -0.371895 16.1468 -17.8086 9.03806 -3.55582 -713.886
lowerback 40.5674 1.91897 -3.7547
upperback 6.66076 1.05819 1.80493
thorax -12.266 0.583491 3.45684
lowerneck -12.1586 1.83521 -4.3142
upperneck 0.660363 3.25993 -4.07918
head 2.30858 1.46663 -0.380435
rclavicle 1.98785e-014 4.77083e-015
rhumerus -14.9461 1.63435 -78.0467
rradius 61.0955
rwrist 2.6429
rhand -21.556 7.51891
rfingers 7.12502
rthumb 4.83754 -22.4059
lclavicle 1.98785e-014 4.77083e-015
lhumerus 1.54522 18.6991 70.1075
lradius 80.3713
lwrist 12.4301
lhand 160.728 -129.679
lfingers 7.12502
lthumb -172.957 3500.18
rfemur -40.9375 -7.03949 9.06866
rtibia 66.8288
rfoot -27.2944 -14.6703
rtoes -14.698
lfemur -24.3851 -9.82488 7.13815
ltibia 36.5379
lfoot 9.58833 24.3663
ltoes -2.69071
4601
root -0.460939 16.1529 -17.816 8.88764 -3.821 -713.937
lowerback 40.9808 1.79652 -3.52337
upperback 6.53929 1.02607 2.0625
thorax -12.5476 0.567213 3.62999
lowerneck -12.3387 2.02115 -4.05475
upperneck 0.893661 3.51574 -4.55186
head 2.43652 1.56885 -0.559716
rclavicle 1.51076e-014 2.22639e-014
rhumerus -14.5757 2.01801 -78.0309
rradius 60.9155
rwrist 2.13136
rhand -24.1134 11.7971
rfingers 7.12502
rthumb 2.36784 -18.1695
lclavicle 1.51076e-014 2.22639e-014
lhumerus 2.02904 17.6342 71.8437
lradius 78.3811
lwrist 11.9432
lhand 159.489 -128.861
lfingers 7.12502
lthumb -174.153 3501.04
rfemur -40.8658 -6.73541 9.44684
rtibia 66.7571
rfoot -27.3775 -14.6333
rtoes -14.1611
lfemur -24.8034 -9.51515 6.80032
ltibia 37.8783
lfoot 9.02989 22.0113
ltoes -0.635392
4602
root -0.550691 16.1556 -17.8675 9.00493 -4.1766 -714.995
lowerback 41.6537 1.62369 -2.56713
upperback 6.3763 1.25681 2.45593
thorax -12.9789 0.640625 3.4547
lowerneck -11.7648 2.26062 -3.05484
upperneck 0.293957 3.67593 -5.63516
head 2.17869 1.64583 -1.08071
rclavicle 3.18055e-015 -7.95139e-016
rhumerus -13.8696 1.92723 -78.2529
rradius 60.5606
rwrist 2.05811
rhand -22.8557 6.54481
rfingers 7.12502
rthumb 3.58246 -23.4048
lclavicle 3.18055e-015 -7.95139e-016
lhumerus 3.16897 16.4698 73.4457
lradius 75.7897
lwrist 11.0366
lhand 158.938 -127.936
lfingers 7.12502
lthumb -174.686 3501.98
rfemur -41.2965 -5.72592 11.0516
rtibia 66.6514
rfoot -27.1628 -15.1143
rtoes -13.3607
lfemur -25.8053 -8.70921 7.64572
ltibia 39.5968
lfoot 9.43035 18.8724
ltoes 1.53797
4603
root -0.625956 16.2243 -17.7686 8.35322 -4.33501 -713.299
lowerback 41.1152 1.4443 -3.35023
upperback 6.92591 0.67796 2.20012
thorax -12.1194 0.391207 3.84136
lowerneck -12.684 2.18644 -3.45449
upperneck 0.939379 3.70585 -5.28156
head 2.54858 1.63393 -0.885134
rclavicle -2.46493e-014 -3.4191e-014
rhumerus -12.5207 1.84355 -78.3881
rradius 59.5137
rwrist 2.05565
rhand -23.8609 5.18509
rfingers 7.12502
rthumb 2.6117 -24.7787
lclavicle -2.46493e-014 -3.4191e-014
lhumerus 4.44079 15.3921 75.2299
lradius 73.0815
lwrist 9.34603
lhand 159.734 -128.877
lfingers 7.12502
lthumb -173.917 3501.02
rfemur -39.8943 -6.60778 9.23931
rtibia 66.3061
rfoot -27.5776 -14.6753
rtoes -14.8473
lfemur -25.6157 -9.50399 4.76451
ltibia 41.2635
lfoot 5.38179 17.1652
ltoes -11.0774
4604
root -0.70421 16.1987 -17.8643 8.93166 -5.20013 -715.057
lowerback 41.8647 1.51352 -2.33055
upperback 6.64481 1.26289 2.83309
thorax -12.7477 0.622681 3.73995
lowerneck -13.1398 2.33941 -3.17265
upperneck 0.959135 3.91192 -5.64049
head 2.65927 1.71693 -1.03412
rclavicle 1.35174e-014 -5.56597e-015
rhumerus -11.2956 2.09609 -78.6107
rradius 58.7498
rwrist 1.61606
rhand -23.8551 5.35307
rfingers 7.12502
rthumb 2.61725 -24.6106
lclavicle 1.35174e-014 -5.56597e-015
lhumerus 5.03172 14.2541 76.6272
lradius 70.3672
lwrist 7.13199
lhand 161.888 -125.99
lfingers 7.12502
lthumb -171.838 3503.83
rfemur -41.2026 -4.63865 11.623
rtibia 66.1524
rfoot -26.81 -15.5148
rtoes -14.3085
lfemur -27.1052 -7.996 6.41086
ltibia 43.2374
lfoot 5.3436 14.5881
ltoes -5.80971
4605
root -0.777894 16.2216 -17.8629 8.87599 -5.6545 -715.172
lowerback 42.2325 1.39167 -2.15503
upperback 6.61624 1.20624 3.00896
thorax -12.8983 0.590953 3.86699
lowerneck -13.5258 2.45392 -2.97511
upperneck 1.17626 4.08141 -5.90325
head 2.82178 1.77813 -1.14008
rclavicle 1.74931e-014 -7.15625e-015
rhumerus -10.3131 2.44462 -78.9528
rradius 58.0289
rwrist 1.17436
rhand -23.7121 4.94467
rfingers 7.12502
rthumb 2.75542 -25.0173
lclavicle 1.74931e-014 -7.15625e-015
lhumerus 5.10571 11.9974 77.4998
lradius 68.1042
lwrist 7.28812
lhand 160.895 -126.794
lfingers 7.12502
lthumb -172.796 3503.06
rfemur -41.0101 -4.11685 11.9745
rtibia 65.8217
rfoot -26.9229 -15.1664
rtoes -13.0621
lfemur -27.7293 -7.62796 5.80489
ltibia 44.9889
lfoot 4.06572 12.3934
ltoes -7.29117
4606
root -0.851304 16.2521 -17.8522 8.74089 -5.95222 -715.393
lowerback 42.5951 1.22049 -1.80429
upperback 6.68487 1.17448 3.23393
thorax -12.9338 0.561013 3.94478
lowerneck -14.0048 2.46124 -3.00866
upperneck 1.48594 4.1419 -5.91776
head 3.02041 1.78776 -1.13007
rclavicle -2.06736e-014 -2.3059e-014
rhumerus -9.23108 2.55633 -79.2558
rradius 57.2313
rwrist 0.789109
rhand -24.1477 4.79428
rfingers 7.12502
rthumb 2.33476 -25.1727
lclavicle -2.06736e-014 -2.3059e-014
lhumerus 5.24071 9.72014 78.2091
lradius 65.8297
lwrist 5.82401
lhand 162.268 -132.033
lfingers 7.12502
lthumb -171.471 3497.77
rfemur -40.6232 -3.69159 12.4884
rtibia 65.5005
rfoot -27.0125 -15.1861
rtoes -12.7215
lfemur -28.4044 -7.44867 5.28137
ltibia 46.9386
lfoot 3.19504 10.3887
ltoes -6.21236
4607
root -0.915978 16.2898 -17.8321 8.52941 -6.4744 -715.569
lowerback 42.9006 0.978409 -1.68609
upperback 6.70624 0.960285 3.48241
thorax -12.9959 0.459883 4.25656
lowerneck -13.6006 2.63376 -3.39309
upperneck 1.32831 4.4008 -5.88894
head 2.88125 1.92709 -1.03979
rclavicle 3.97569e-015 3.26007e-014
rhumerus -8.27815 3.67566 -79.6712
rradius 56.57
rwrist 0.301142
rhand -24.8273 8.37943
rfingers 7.12502
rthumb 1.67835 -21.5937
lclavicle 3.97569e-015 3.26007e-014
lhumerus 5.56247 8.02719 78.8205
lradius 62.6989
lwrist 2.97503
lhand 160.732 -131.804
lfingers 7.12502
lthumb -172.953 3498.06
rfemur -40.1133 -3.14761 12.8821
rtibia 65.08
rfoot -27.0955 -15.0421
rtoes -12.3891
lfemur -28.8052 -7.13616 4.54884
ltibia 48.7697
lfoot -0.0310994 9.35416
ltoes -15.8324
4608
root -0.969902 16.3149 -17.8364 8.73311 -6.81448 -715.756
lowerback 43.0756 0.775762 -1.28443
upperback 6.7535 0.912116 3.6628
thorax -12.9923 0.421478 4.26802
lowerneck -14.6103 2.70114 -3.18426
upperneck 1.84995 4.56453 -6.17545
head 3.27366 1.96027 -1.1479
rclavicle -4.77083e-015 -5.48646e-014
rhumerus -6.95651 3.91777 -80.0507
rradius 55.6911
rwrist 0.101222
rhand -23.8699 6.28505
rfingers 7.12502
rthumb 2.60298 -23.6788
lclavicle -4.77083e-015 -5.48646e-014
lhumerus 6.20137 5.70191 79.4766
lradius 59.6761
lwrist 0.908616
lhand 162.198 -133.929
lfingers 7.12502
lthumb -171.539 3495.88
rfemur -40.1508 -2.7961 13.2733
rtibia 64.7051
rfoot -27.1452 -14.6247
rtoes -10.3002
lfemur -29.9357 -6.75839 3.89439
ltibia 50.6866
lfoot -1.21961 7.30631
ltoes -14.9789
4609
root -1.02061 16.3361 -17.829 8.95844 -7.30552 -715.824
lowerback 43.3425 0.61776 -1.15251
upperback 6.52476 0.808664 3.83379
thorax -13.3394 0.377802 4.44278
lowerneck -14.7005 2.88633 -3.0529
upperneck 1.97525 4.82006 -6.44917
head 3.35316 2.06956 -1.24251
rclavicle -3.49861e-014 -8.74653e-015
rhumerus -6.07321 4.5528 -80.4949
rradius 54.6174
rwrist -0.3437
rhand -23.6521 5.52818
rfingers 7.12502
rthumb 2.81337 -24.433
lclavicle -3.49861e-014 -8.74653e-015
lhumerus 6.2493 3.49362 80.0071
lradius 56.6791
lwrist -0.732941
lhand 161.955 -135.415
lfingers 7.12502
lthumb -171.773 3494.41
rfemur -40.195 -2.44711 13.494
rtibia 64.3095
rfoot -27.0825 -14.485
rtoes -10.0635
lfemur -30.969 -6.29173 2.97552
ltibia 52.6182
lfoot -2.50409 5.79316
ltoes -15.8668
4610
root -1.06836 16.3659 -17.8063 9.1021 -7.98039 -715.804
lowerback 43.1403 0.401878 -1.07308
upperback 6.84617 0.558385 3.82141
thorax -12.8788 0.250792 4.49627
lowerneck -15.3996 3.13884 -3.04128
upperneck 1.8006 5.18543 -6.49711
head 3.43438 2.24222 -1.22394
rclavicle 7.95139e-015 -2.70347e-014
rhumerus -4.24178 5.25678 -81.1633
rradius 53.4942
rwrist -0.764807
rhand -23.4017 5.50427
rfingers 7.12502
rthumb 3.05519 -24.4536
lclavicle 7.95139e-015 -2.70347e-014
lhumerus 7.39615 1.58007 80.2038
lradius 53.5315
lwrist -2.33447
lhand 162.784 -135.864
lfingers 7.12502
lthumb -170.973 3493.92
rfemur -40.1384 -1.90769 13.5564
rtibia 63.8755
rfoot -26.9906 -14.3229
rtoes -10.3889
lfemur -31.8061 -5.70353 1.83758
ltibia 54.5267
lfoot -3.80138 4.57956
ltoes -17.7251
4611
root -1.11544 16.3991 -17.7832 9.25184 -8.77765 -715.879
lowerback 43.1311 0.366735 -0.884973
upperback 7.07238 0.572674 3.7764
thorax -12.6087 0.238799 4.33732
lowerneck -16.1972 3.30696 -2.70487
upperneck 1.87573 5.40821 -6.6922
head 3.63907 2.32839 -1.321
rclavicle -2.54444e-014 -3.97569e-014
rhumerus -2.67074 5.54967 -81.7706
rradius 52.2074
rwrist -1.32246
rhand -23.5226 5.81629
rfingers 7.12502
rthumb 2.93842 -24.1432
lclavicle -2.54444e-014 -3.97569e-014
lhumerus 7.84554 -0.650746 80.4573
lradius 51.446
lwrist -4.48891
lhand 159.261 -139.313
lfingers 7.12502
lthumb -174.374 3490.59
rfemur -40.1312 -1.30056 13.7203
rtibia 63.3831
rfoot -26.7691 -14.1119
rtoes -10.5747
lfemur -32.6245 -5.19092 0.744163
ltibia 56.362
lfoot -4.98982 3.65167
ltoes -20.0176
4612
root -1.15911 16.4312 -17.7691 9.43774 -9.36373 -716.083
lowerback 43.4788 0.256617 -0.722662
upperback 6.88214 0.548736 4.00385
thorax -12.941 0.226147 4.52262
lowerneck -15.786 3.46928 -2.69601
upperneck 1.60076 5.60138 -6.97524
head 3.47752 2.42957 -1.40823
rclavicle 9.54166e-015 3.18055e-015
rhumerus -1.94622 6.55519 -82.0303
rradius 51.1839
rwrist -2.42724
rhand -23.5042 6.50248
rfingers 7.12502
rthumb 2.95617 -23.4568
lclavicle 9.54166e-015 3.18055e-015
lhumerus 7.82723 -2.07663 81.3486
lradius 49.4167
lwrist -6.42032
lhand 164.962 -134.236
lfingers 7.12502
lthumb -168.872 3495.45
rfemur -40.1263 -0.783094 14.0234
rtibia 62.8489
rfoot -26.6082 -13.8557
rtoes -10.3585
lfemur -33.6747 -4.73913 -0.222553
ltibia 58.1281
lfoot -5.79368 2.87603
ltoes -22.1985
